<svg width="237" height="63" viewBox="0 0 237 63" fill="none" xmlns="http://www.w3.org/2000/svg">
<rect width="236.25" height="63" rx="11.025" fill="#009FFF"/>
<path d="M96.2974 35.6489H88.9058L87.1308 40.9353H84L91.0011 21.377H94.2539L101.255 40.9353H98.0709L96.2974 35.6489ZM89.6714 33.2095H95.5304L92.642 24.6301H92.5612L89.6714 33.2095Z" fill="white"/>
<path d="M116.375 33.8058C116.375 38.2371 114.024 41.084 110.475 41.084C109.576 41.1315 108.682 40.9226 107.895 40.4814C107.109 40.0402 106.461 39.3844 106.027 38.5892H105.96V45.6521H103.058V26.6753H105.867V29.047H105.92C106.374 28.2556 107.033 27.6033 107.826 27.1594C108.618 26.7154 109.515 26.4966 110.422 26.5261C114.01 26.5261 116.375 29.3869 116.375 33.8058ZM113.392 33.8058C113.392 30.9189 111.913 29.0208 109.656 29.0208C107.439 29.0208 105.947 30.9588 105.947 33.8058C105.947 36.679 107.439 38.6031 109.656 38.6031C111.913 38.6031 113.392 36.719 113.392 33.8058Z" fill="white"/>
<path d="M131.935 33.8058C131.935 38.2371 129.584 41.084 126.036 41.084C125.137 41.1315 124.243 40.9226 123.456 40.4814C122.669 40.0402 122.022 39.3845 121.587 38.5893H121.52V45.6522H118.618V26.6753H121.427V29.047H121.481C121.935 28.2556 122.593 27.6033 123.386 27.1594C124.179 26.7154 125.076 26.4966 125.982 26.5261C129.571 26.5261 131.935 29.3869 131.935 33.8058ZM128.953 33.8058C128.953 30.9189 127.474 29.0208 125.217 29.0208C122.999 29.0208 121.508 30.9588 121.508 33.8058C121.508 36.679 122.999 38.6031 125.217 38.6031C127.474 38.6031 128.953 36.719 128.953 33.8058Z" fill="white"/>
<path d="M142.22 35.4858C142.435 37.4253 144.303 38.6988 146.856 38.6988C149.302 38.6988 151.061 37.4253 151.061 35.6765C151.061 34.1584 150 33.2494 147.487 32.6264L144.974 32.0158C141.413 31.1483 139.76 29.4687 139.76 26.7432C139.76 23.3687 142.676 21.0508 146.816 21.0508C150.914 21.0508 153.723 23.3687 153.817 26.7432H150.888C150.712 24.7914 149.113 23.6132 146.775 23.6132C144.437 23.6132 142.837 24.8053 142.837 26.5402C142.837 27.923 143.859 28.7366 146.358 29.3595L148.495 29.8886C152.474 30.8376 154.127 32.4495 154.127 35.3103C154.127 38.9694 151.237 41.2612 146.641 41.2612C142.34 41.2612 139.437 39.0233 139.249 35.4857L142.22 35.4858Z" fill="white"/>
<path d="M160.389 23.3008V26.6753H163.078V28.9932H160.389V36.8544C160.389 38.0756 160.928 38.6447 162.11 38.6447C162.429 38.6391 162.747 38.6165 163.064 38.577V40.8811C162.533 40.9812 161.993 41.0265 161.452 41.0164C158.59 41.0164 157.474 39.9321 157.474 37.1666V28.9932H155.418V26.6753H157.474V23.3008H160.389Z" fill="white"/>
<path d="M164.635 33.8059C164.635 29.3193 167.255 26.5 171.341 26.5C175.44 26.5 178.047 29.3193 178.047 33.8059C178.047 38.3048 175.453 41.1118 171.341 41.1118C167.229 41.1118 164.635 38.3048 164.635 33.8059ZM175.09 33.8059C175.09 30.7282 173.692 28.9117 171.341 28.9117C168.989 28.9117 167.592 30.742 167.592 33.8059C167.592 36.8959 168.989 38.6986 171.341 38.6986C173.692 38.6986 175.09 36.8959 175.09 33.8059Z" fill="white"/>
<path d="M180.44 26.6761H183.208V29.1032H183.275C183.462 28.3452 183.902 27.6753 184.522 27.2061C185.141 26.7369 185.902 26.4971 186.676 26.5269C187.01 26.5257 187.344 26.5623 187.67 26.6361V29.3739C187.248 29.2438 186.807 29.184 186.366 29.197C185.944 29.1798 185.524 29.2547 185.134 29.4168C184.744 29.5788 184.393 29.8241 184.106 30.1358C183.818 30.4475 183.601 30.8182 183.47 31.2224C183.338 31.6267 183.294 32.0549 183.342 32.4777V40.9357H180.44V26.6761Z" fill="white"/>
<path d="M201.05 36.7467C200.659 39.3353 198.16 41.1118 194.962 41.1118C190.849 41.1118 188.296 38.3325 188.296 33.8736C188.296 29.4008 190.863 26.5 194.84 26.5C198.752 26.5 201.211 29.2101 201.211 33.5337V34.5365H191.226V34.7134C191.18 35.2381 191.245 35.7668 191.417 36.2643C191.589 36.7617 191.864 37.2166 192.224 37.5986C192.583 37.9806 193.02 38.281 193.503 38.48C193.987 38.6789 194.507 38.7717 195.029 38.7524C195.715 38.8172 196.403 38.657 196.991 38.2956C197.58 37.9342 198.037 37.391 198.294 36.7467L201.05 36.7467ZM191.24 32.4908H198.308C198.334 32.019 198.263 31.5468 198.099 31.1039C197.936 30.661 197.684 30.2569 197.358 29.9171C197.032 29.5773 196.641 29.309 196.207 29.1291C195.774 28.9492 195.308 28.8616 194.84 28.8717C194.367 28.8689 193.899 28.9605 193.462 29.1412C193.024 29.3219 192.627 29.5882 192.292 29.9246C191.957 30.2611 191.692 30.6611 191.511 31.1016C191.331 31.542 191.238 32.0142 191.24 32.4908Z" fill="white"/>
<path d="M55.0289 30.8393C55.0463 29.4722 55.4064 28.1319 56.0754 26.9429C56.7445 25.7539 57.7009 24.7549 58.8556 24.0389C58.1221 22.9822 57.1543 22.1126 56.0293 21.4992C54.9042 20.8857 53.6528 20.5453 52.3745 20.505C49.6476 20.2163 47.0041 22.1507 45.6145 22.1507C44.198 22.1507 42.0586 20.5336 39.7547 20.5814C38.2646 20.63 36.8123 21.067 35.5393 21.85C34.2664 22.633 33.2163 23.7352 32.4913 25.0492C29.3508 30.5334 31.6933 38.5933 34.7017 43.0263C36.2069 45.197 37.966 47.6217 40.2677 47.5357C42.5202 47.4415 43.3614 46.0871 46.0802 46.0871C48.7738 46.0871 49.5631 47.5357 51.9115 47.4811C54.3285 47.4415 55.8513 45.3007 57.3036 43.1095C58.3851 41.5627 59.2173 39.8533 59.7694 38.0444C58.3652 37.4454 57.1669 36.4428 56.3239 35.1615C55.4809 33.8802 55.0305 32.377 55.0289 30.8393Z" fill="white"/>
<path d="M50.5933 16.7425C51.9111 15.1469 52.5603 13.096 52.4031 11.0254C50.3898 11.2387 48.53 12.2092 47.1944 13.7436C46.5414 14.4931 46.0412 15.3652 45.7226 16.3098C45.4039 17.2545 45.2729 18.2532 45.3372 19.249C46.3442 19.2594 47.3404 19.0393 48.2509 18.6051C49.1613 18.1709 49.9622 17.5341 50.5933 16.7425Z" fill="white"/>
</svg>
