<svg width="32" height="33" viewBox="0 0 32 33" fill="none" xmlns="http://www.w3.org/2000/svg">
<path d="M29.2934 24.9398C29.2934 25.4198 29.1867 25.9132 28.9601 26.3932C28.7334 26.8732 28.4401 27.3265 28.0534 27.7532C27.4001 28.4732 26.6801 28.9932 25.8667 29.3265C25.0667 29.6598 24.2001 29.8332 23.2668 29.8332C21.9067 29.8332 20.4534 29.5132 18.9201 28.8598C17.3867 28.2065 15.8534 27.3265 14.3334 26.2198C12.8001 25.0998 11.3467 23.8598 9.96008 22.4865C8.58675 21.0998 7.34675 19.6465 6.24008 18.1265C5.14675 16.6065 4.26675 15.0865 3.62675 13.5798C2.98675 12.0598 2.66675 10.6065 2.66675 9.21984C2.66675 8.31317 2.82675 7.4465 3.14675 6.6465C3.46675 5.83317 3.97341 5.0865 4.68008 4.41984C5.53341 3.57984 6.46675 3.1665 7.45341 3.1665C7.82675 3.1665 8.20008 3.2465 8.53341 3.4065C8.88008 3.5665 9.18675 3.8065 9.42675 4.15317L12.5201 8.51317C12.7601 8.8465 12.9334 9.15317 13.0534 9.4465C13.1734 9.7265 13.2401 10.0065 13.2401 10.2598C13.2401 10.5798 13.1467 10.8998 12.9601 11.2065C12.7867 11.5132 12.5334 11.8332 12.2134 12.1532L11.2001 13.2065C11.0534 13.3532 10.9867 13.5265 10.9867 13.7398C10.9867 13.8465 11.0001 13.9398 11.0267 14.0465C11.0667 14.1532 11.1067 14.2332 11.1334 14.3132C11.3734 14.7532 11.7867 15.3265 12.3734 16.0198C12.9734 16.7132 13.6134 17.4198 14.3067 18.1265C15.0267 18.8332 15.7201 19.4865 16.4267 20.0865C17.1201 20.6732 17.6934 21.0732 18.1467 21.3132C18.2134 21.3398 18.2934 21.3798 18.3867 21.4198C18.4934 21.4598 18.6001 21.4732 18.7201 21.4732C18.9467 21.4732 19.1201 21.3932 19.2667 21.2465L20.2801 20.2465C20.6134 19.9132 20.9334 19.6598 21.2401 19.4998C21.5467 19.3132 21.8534 19.2198 22.1867 19.2198C22.4401 19.2198 22.7067 19.2732 23.0001 19.3932C23.2934 19.5132 23.6001 19.6865 23.9334 19.9132L28.3467 23.0465C28.6934 23.2865 28.9334 23.5665 29.0801 23.8998C29.2134 24.2332 29.2934 24.5665 29.2934 24.9398Z" fill="#009FFF"/>
</svg>
