<svg width="213" height="63" viewBox="0 0 213 63" fill="none" xmlns="http://www.w3.org/2000/svg">
<rect width="212.625" height="63" rx="11.025" fill="#009FFF"/>
<path opacity="0.4" d="M50.1937 21.0187V33.2062H12.75V21.0187C12.75 16.4625 16.4625 12.75 21.0187 12.75H41.925C46.4813 12.75 50.1937 16.4625 50.1937 21.0187Z" fill="white"/>
<path d="M12.75 33.2251V33.6001C12.75 38.1751 16.4625 41.8688 21.0187 41.8688H28.2187C29.25 41.8688 30.0937 42.7126 30.0937 43.7438V45.5626C30.0937 46.5938 29.25 47.4376 28.2187 47.4376H23.6812C22.9125 47.4376 22.275 48.0751 22.275 48.8438C22.275 49.6126 22.8937 50.2501 23.6812 50.2501H39.3375C40.1062 50.2501 40.7437 49.6126 40.7437 48.8438C40.7437 48.0751 40.1062 47.4376 39.3375 47.4376H34.8C33.7687 47.4376 32.925 46.5938 32.925 45.5626V43.7438C32.925 42.7126 33.7687 41.8688 34.8 41.8688H41.9437C46.5187 41.8688 50.2125 38.1563 50.2125 33.6001V33.2251H12.75Z" fill="white"/>
<path d="M69.6364 39H63.7216V21.5455H69.7557C71.4886 21.5455 72.9773 21.8949 74.2216 22.5938C75.4716 23.2869 76.4318 24.2841 77.1023 25.5852C77.7727 26.8864 78.108 28.4432 78.108 30.2557C78.108 32.0739 77.7699 33.6364 77.0938 34.9432C76.4233 36.25 75.4545 37.2528 74.1875 37.9517C72.9261 38.6506 71.4091 39 69.6364 39ZM66.8835 36.2642H69.483C70.6989 36.2642 71.7131 36.0426 72.5256 35.5994C73.3381 35.1506 73.9489 34.483 74.358 33.5966C74.767 32.7045 74.9716 31.5909 74.9716 30.2557C74.9716 28.9205 74.767 27.8125 74.358 26.9318C73.9489 26.0455 73.3438 25.3835 72.5426 24.946C71.7472 24.5028 70.7585 24.2812 69.5767 24.2812H66.8835V36.2642ZM86.7713 39.2557C85.4588 39.2557 84.3253 38.983 83.3707 38.4375C82.4219 37.8864 81.6918 37.108 81.1804 36.1023C80.669 35.0909 80.4134 33.9006 80.4134 32.5312C80.4134 31.1847 80.669 30.0028 81.1804 28.9858C81.6974 27.9631 82.419 27.1676 83.3452 26.5994C84.2713 26.0256 85.3594 25.7386 86.6094 25.7386C87.4162 25.7386 88.1776 25.8693 88.8935 26.1307C89.6151 26.3864 90.2514 26.7841 90.8026 27.3239C91.3594 27.8636 91.7969 28.5511 92.1151 29.3864C92.4332 30.2159 92.5923 31.2045 92.5923 32.3523V33.2983H81.8622V31.2188H89.6349C89.6293 30.6278 89.5014 30.1023 89.2514 29.642C89.0014 29.1761 88.652 28.8097 88.2031 28.5426C87.7599 28.2756 87.2429 28.142 86.652 28.142C86.0213 28.142 85.4673 28.2955 84.9901 28.6023C84.5128 28.9034 84.1406 29.3011 83.8736 29.7955C83.6122 30.2841 83.4787 30.821 83.473 31.4062V33.2216C83.473 33.983 83.6122 34.6364 83.8906 35.1818C84.169 35.7216 84.5582 36.1364 85.0582 36.4261C85.5582 36.7102 86.1435 36.8523 86.8139 36.8523C87.2628 36.8523 87.669 36.7898 88.0327 36.6648C88.3963 36.5341 88.7116 36.3438 88.9787 36.0938C89.2457 35.8438 89.4474 35.5341 89.5838 35.1648L92.4645 35.4886C92.2827 36.25 91.9361 36.9148 91.4247 37.483C90.919 38.0455 90.2713 38.483 89.4815 38.7955C88.6918 39.1023 87.7884 39.2557 86.7713 39.2557ZM105.549 29.3693L102.737 29.6761C102.657 29.392 102.518 29.125 102.319 28.875C102.126 28.625 101.864 28.4233 101.535 28.2699C101.205 28.1165 100.802 28.0398 100.325 28.0398C99.6825 28.0398 99.1428 28.179 98.7053 28.4574C98.2734 28.7358 98.0604 29.0966 98.0661 29.5398C98.0604 29.9205 98.1996 30.2301 98.4837 30.4688C98.7734 30.7074 99.2507 30.9034 99.9155 31.0568L102.148 31.5341C103.387 31.8011 104.308 32.2244 104.91 32.804C105.518 33.3835 105.825 34.142 105.83 35.0795C105.825 35.9034 105.583 36.6307 105.106 37.2614C104.634 37.8864 103.978 38.375 103.137 38.7273C102.296 39.0795 101.33 39.2557 100.239 39.2557C98.6371 39.2557 97.3473 38.9205 96.37 38.25C95.3928 37.5739 94.8104 36.6335 94.6229 35.429L97.6314 35.1392C97.7678 35.7301 98.0575 36.1761 98.5007 36.4773C98.9439 36.7784 99.5206 36.929 100.231 36.929C100.964 36.929 101.552 36.7784 101.995 36.4773C102.444 36.1761 102.668 35.804 102.668 35.3608C102.668 34.9858 102.523 34.6761 102.234 34.4318C101.95 34.1875 101.506 34 100.904 33.8693L98.6712 33.4006C97.4155 33.1392 96.4865 32.6989 95.8842 32.0795C95.282 31.4545 94.9837 30.6648 94.9893 29.7102C94.9837 28.9034 95.2024 28.2045 95.6456 27.6136C96.0945 27.017 96.7166 26.5568 97.5121 26.233C98.3132 25.9034 99.2365 25.7386 100.282 25.7386C101.816 25.7386 103.023 26.0653 103.904 26.7188C104.79 27.3722 105.339 28.2557 105.549 29.3693ZM111.187 34.892L111.178 31.1676H111.673L116.377 25.9091H119.982L114.195 32.3523H113.556L111.187 34.892ZM108.374 39V21.5455H111.46V39H108.374ZM116.59 39L112.329 33.0426L114.408 30.8693L120.281 39H116.59ZM128.575 25.9091V28.2955H121.05V25.9091H128.575ZM122.908 22.7727H125.993V35.0625C125.993 35.4773 126.055 35.7955 126.18 36.017C126.311 36.233 126.482 36.3807 126.692 36.4602C126.902 36.5398 127.135 36.5795 127.391 36.5795C127.584 36.5795 127.76 36.5653 127.919 36.5369C128.084 36.5085 128.209 36.483 128.294 36.4602L128.814 38.8722C128.649 38.929 128.413 38.9915 128.107 39.0597C127.805 39.1278 127.436 39.1676 126.999 39.179C126.226 39.2017 125.53 39.0852 124.911 38.8295C124.291 38.5682 123.8 38.1648 123.436 37.6193C123.078 37.0739 122.902 36.392 122.908 35.5739V22.7727ZM136.725 39.2557C135.447 39.2557 134.339 38.9744 133.401 38.4119C132.464 37.8494 131.737 37.0625 131.219 36.0511C130.708 35.0398 130.452 33.858 130.452 32.5057C130.452 31.1534 130.708 29.9687 131.219 28.9517C131.737 27.9347 132.464 27.1449 133.401 26.5824C134.339 26.0199 135.447 25.7386 136.725 25.7386C138.004 25.7386 139.112 26.0199 140.049 26.5824C140.987 27.1449 141.711 27.9347 142.222 28.9517C142.739 29.9687 142.998 31.1534 142.998 32.5057C142.998 33.858 142.739 35.0398 142.222 36.0511C141.711 37.0625 140.987 37.8494 140.049 38.4119C139.112 38.9744 138.004 39.2557 136.725 39.2557ZM136.742 36.7841C137.435 36.7841 138.015 36.5937 138.481 36.2131C138.947 35.8267 139.293 35.3097 139.521 34.6619C139.754 34.0142 139.87 33.2926 139.87 32.4972C139.87 31.696 139.754 30.9716 139.521 30.3239C139.293 29.6705 138.947 29.1506 138.481 28.7642C138.015 28.3778 137.435 28.1847 136.742 28.1847C136.032 28.1847 135.441 28.3778 134.969 28.7642C134.504 29.1506 134.154 29.6705 133.921 30.3239C133.694 30.9716 133.58 31.696 133.58 32.4972C133.58 33.2926 133.694 34.0142 133.921 34.6619C134.154 35.3097 134.504 35.8267 134.969 36.2131C135.441 36.5937 136.032 36.7841 136.742 36.7841ZM145.616 43.9091V25.9091H148.651V28.0739H148.83C148.989 27.7557 149.213 27.4176 149.503 27.0597C149.793 26.696 150.185 26.3864 150.679 26.1307C151.173 25.8693 151.804 25.7386 152.571 25.7386C153.582 25.7386 154.494 25.9972 155.307 26.5142C156.125 27.0256 156.773 27.7841 157.25 28.7898C157.733 29.7898 157.974 31.017 157.974 32.4716C157.974 33.9091 157.739 35.1307 157.267 36.1364C156.795 37.142 156.153 37.9091 155.341 38.4375C154.528 38.9659 153.608 39.2301 152.58 39.2301C151.83 39.2301 151.207 39.1051 150.713 38.8551C150.219 38.6051 149.821 38.304 149.52 37.9517C149.224 37.5937 148.994 37.2557 148.83 36.9375H148.702V43.9091H145.616ZM148.642 32.4545C148.642 33.3011 148.761 34.0426 149 34.679C149.244 35.3153 149.594 35.8125 150.048 36.1705C150.509 36.5227 151.065 36.6989 151.719 36.6989C152.401 36.6989 152.972 36.517 153.432 36.1534C153.892 35.7841 154.239 35.2812 154.472 34.6449C154.71 34.0028 154.83 33.2727 154.83 32.4545C154.83 31.642 154.713 30.9205 154.48 30.2898C154.247 29.6591 153.901 29.1648 153.44 28.8068C152.98 28.4489 152.406 28.2699 151.719 28.2699C151.06 28.2699 150.5 28.4432 150.04 28.7898C149.58 29.1364 149.23 29.6222 148.991 30.2472C148.759 30.8722 148.642 31.608 148.642 32.4545Z" fill="white"/>
<path d="M182.214 30.6694L187.401 35.8562L192.588 30.6694" stroke="white" stroke-width="2" stroke-linecap="round" stroke-linejoin="round"/>
<path d="M187.401 35.8563V22.0249" stroke="white" stroke-width="2" stroke-linecap="round" stroke-linejoin="round"/>
<path d="M177.027 39.314C183.753 41.5616 191.049 41.5616 197.774 39.314" stroke="white" stroke-width="2" stroke-linecap="round" stroke-linejoin="round"/>
</svg>
