<svg width="32" height="33" viewBox="0 0 32 33" fill="none" xmlns="http://www.w3.org/2000/svg">
<path d="M22.6667 5.1665H9.33342C5.33341 5.1665 2.66675 7.1665 2.66675 11.8332V21.1665C2.66675 25.8332 5.33341 27.8332 9.33342 27.8332H22.6667C26.6667 27.8332 29.3334 25.8332 29.3334 21.1665V11.8332C29.3334 7.1665 26.6667 5.1665 22.6667 5.1665ZM23.2934 13.2865L19.1201 16.6198C18.2401 17.3265 17.1201 17.6732 16.0001 17.6732C14.8801 17.6732 13.7467 17.3265 12.8801 16.6198L8.70675 13.2865C8.28008 12.9398 8.21341 12.2998 8.54675 11.8732C8.89341 11.4465 9.52008 11.3665 9.94675 11.7132L14.1201 15.0465C15.1334 15.8598 16.8534 15.8598 17.8667 15.0465L22.0401 11.7132C22.4667 11.3665 23.1067 11.4332 23.4401 11.8732C23.7867 12.2998 23.7201 12.9398 23.2934 13.2865Z" fill="#009FFF"/>
</svg>
