<svg width="32" height="32" viewBox="0 0 32 32" fill="none" xmlns="http://www.w3.org/2000/svg">
<path d="M21.5865 2.6665H10.4132C5.55984 2.6665 2.6665 5.55984 2.6665 10.4132V21.5732C2.6665 26.4398 5.55984 29.3332 10.4132 29.3332H21.5732C26.4265 29.3332 29.3198 26.4398 29.3198 21.5865V10.4132C29.3332 5.55984 26.4398 2.6665 21.5865 2.6665ZM22.4265 18.9865L16.7065 24.7065C16.5198 24.8932 16.2665 24.9998 15.9998 24.9998C15.7332 24.9998 15.4798 24.8932 15.2932 24.7065L9.57317 18.9865C9.1865 18.5998 9.1865 17.9598 9.57317 17.5732C9.95984 17.1865 10.5998 17.1865 10.9865 17.5732L14.9998 21.5865V7.99984C14.9998 7.45317 15.4532 6.99984 15.9998 6.99984C16.5465 6.99984 16.9998 7.45317 16.9998 7.99984V21.5865L21.0132 17.5732C21.3998 17.1865 22.0398 17.1865 22.4265 17.5732C22.6265 17.7732 22.7198 18.0265 22.7198 18.2798C22.7198 18.5332 22.6132 18.7998 22.4265 18.9865Z" fill="white"/>
</svg>
