<svg width="236" height="63" viewBox="0 0 236 63" fill="none" xmlns="http://www.w3.org/2000/svg">
<rect width="236" height="63" rx="11.025" fill="#009FFF"/>
<path d="M118.667 26.3186C114.965 26.3186 111.942 29.1379 111.942 33.0124C111.942 36.8869 114.965 39.7061 118.667 39.7061C122.368 39.7061 125.392 36.8711 125.392 33.0124C125.392 29.1536 122.368 26.3186 118.667 26.3186ZM118.667 37.0759C116.635 37.0759 114.887 35.4064 114.887 33.0124C114.887 30.6184 116.635 28.9489 118.667 28.9489C120.699 28.9489 122.447 30.6026 122.447 33.0124C122.447 35.4221 120.699 37.0759 118.667 37.0759ZM104.004 26.3186C100.302 26.3186 97.2783 29.1379 97.2783 33.0124C97.2783 36.8869 100.302 39.7061 104.004 39.7061C107.705 39.7061 110.729 36.8711 110.729 33.0124C110.729 29.1536 107.705 26.3186 104.004 26.3186ZM104.004 37.0759C101.972 37.0759 100.224 35.4064 100.224 33.0124C100.224 30.6184 101.972 28.9489 104.004 28.9489C106.035 28.9489 107.784 30.6026 107.784 33.0124C107.784 35.4221 106.035 37.0759 104.004 37.0759ZM86.5525 28.3661V31.2011H93.3565C93.1518 32.7919 92.6163 33.9731 91.813 34.7764C90.8208 35.7686 89.2772 36.8554 86.5682 36.8554C82.3787 36.8554 79.1028 33.4849 79.1028 29.2954C79.1028 25.1059 82.3787 21.7354 86.5682 21.7354C88.8205 21.7354 90.4742 22.6174 91.687 23.7671L93.6873 21.7669C91.9862 20.1446 89.734 18.9004 86.5525 18.9004C80.8195 18.9004 76 23.5624 76 29.3111C76 35.0599 80.8195 39.7219 86.5525 39.7219C89.6553 39.7219 91.9863 38.7139 93.8133 36.8081C95.6875 34.9339 96.2702 32.2879 96.2702 30.1616C96.2702 29.5001 96.223 28.8859 96.1128 28.3819H86.5525V28.3661ZM157.916 30.5711C157.365 29.0749 155.663 26.3029 152.183 26.3029C148.702 26.3029 145.867 29.0119 145.867 32.9966C145.867 36.7451 148.702 39.6904 152.513 39.6904C155.585 39.6904 157.365 37.8161 158.089 36.7294L155.805 35.2016C155.049 36.3199 154.01 37.0601 152.513 37.0601C151.017 37.0601 149.946 36.3829 149.269 35.0284L158.231 31.3271L157.932 30.5711H157.916ZM148.781 32.8076C148.702 30.2246 150.781 28.9016 152.277 28.9016C153.443 28.9016 154.435 29.4844 154.766 30.3191L148.781 32.8076ZM141.504 39.2966H144.45V19.6091H141.504V39.2966ZM136.685 27.7991H136.59C135.929 27.0116 134.669 26.3029 133.062 26.3029C129.708 26.3029 126.636 29.2481 126.636 33.0281C126.636 36.8081 129.708 39.7061 133.062 39.7061C134.653 39.7061 135.929 38.9974 136.59 38.1784H136.685V39.1391C136.685 41.7064 135.314 43.0766 133.11 43.0766C131.314 43.0766 130.196 41.7851 129.739 40.6984L127.172 41.7694C127.912 43.5491 129.865 45.7226 133.11 45.7226C136.559 45.7226 139.472 43.6909 139.472 38.7454V26.7124H136.685V27.7991ZM133.314 37.0601C131.283 37.0601 129.582 35.3591 129.582 33.0281C129.582 30.6971 131.283 28.9489 133.314 28.9489C135.346 28.9489 136.89 30.6814 136.89 33.0281C136.89 35.3749 135.315 37.0601 133.314 37.0601ZM171.713 19.6091H164.673V39.2966H167.618V31.8311H171.729C174.989 31.8311 178.186 29.4686 178.186 25.7201C178.186 21.9716 174.989 19.6091 171.729 19.6091H171.713ZM171.792 29.1064H167.618V22.3496H171.792C173.997 22.3496 175.241 24.1766 175.241 25.7201C175.241 27.2636 173.997 29.0906 171.792 29.0906V29.1064ZM189.951 26.2714C187.825 26.2714 185.62 27.2164 184.707 29.2796L187.321 30.3664C187.872 29.2796 188.912 28.9174 189.999 28.9174C191.511 28.9174 193.07 29.8309 193.085 31.4531V31.6579C192.55 31.3586 191.416 30.9019 190.014 30.9019C187.195 30.9019 184.344 32.4454 184.344 35.3276C184.344 37.9579 186.644 39.6589 189.227 39.6589C191.196 39.6589 192.298 38.7769 192.975 37.7374H193.07V39.2494H195.905V31.7051C195.905 28.2086 193.29 26.2556 189.92 26.2556L189.951 26.2714ZM189.589 37.0601C188.628 37.0601 187.29 36.5719 187.29 35.3906C187.29 33.8786 188.959 33.2959 190.408 33.2959C191.7 33.2959 192.314 33.5794 193.085 33.9574C192.865 35.7844 191.29 37.0759 189.589 37.0759V37.0601ZM206.253 26.6966L202.882 35.2331H202.788L199.291 26.6966H196.125L201.37 38.6351L198.378 45.2659H201.449L209.529 26.6966H206.268H206.253ZM179.777 39.2966H182.722V19.6091H179.777V39.2966Z" fill="white"/>
<path d="M43.9315 31.9406L27.1577 49.7381C27.6775 51.6753 29.4415 53.0928 31.5362 53.0928C32.371 53.0928 33.1585 52.8723 33.8357 52.4628L33.883 52.4313L52.7515 41.5481L43.9157 31.9248L43.9315 31.9406Z" fill="white" fill-opacity="0.9"/>
<path d="M60.894 28.9165H60.8782L52.7355 24.1758L43.5532 32.35L52.767 41.5638L60.8782 36.886C62.2957 36.1143 63.2565 34.618 63.2565 32.9013C63.2565 31.1845 62.3115 29.6883 60.894 28.9323V28.9165Z" fill="white" fill-opacity="0.8"/>
<path d="M27.1575 15.9697C27.063 16.3477 27 16.7257 27 17.1352V48.5722C27 48.9817 27.0472 49.3597 27.1575 49.7377L44.4982 32.397L27.1575 15.9697Z" fill="white" fill-opacity="0.6"/>
<path d="M44.0575 32.8541L52.7357 24.1759L33.883 13.2454C33.2057 12.8359 32.4025 12.5996 31.5362 12.5996C29.4415 12.5996 27.6775 14.0329 27.1577 15.9544L44.0575 32.8384V32.8541Z" fill="white" fill-opacity="0.7"/>
</svg>
