<svg width="80" height="57" viewBox="0 0 80 57" fill="none" xmlns="http://www.w3.org/2000/svg">
<mask id="path-1-inside-1_1_3119" fill="white">
<path fill-rule="evenodd" clip-rule="evenodd" d="M40.947 0C45.3697 0 48.9551 3.58534 48.9551 8.00808V26.2246C48.9551 30.6474 45.3697 34.2327 40.947 34.2327H16.6391L9.73866 41.0886C9.37778 41.4472 8.76349 41.1916 8.76349 40.6829V34.2327H8.00808C3.58534 34.2327 -3.8147e-06 30.6474 -3.8147e-06 26.2246V8.00808C-3.8147e-06 3.58534 3.58534 0 8.00808 0H40.947Z"/>
</mask>
<path fill-rule="evenodd" clip-rule="evenodd" d="M40.947 0C45.3697 0 48.9551 3.58534 48.9551 8.00808V26.2246C48.9551 30.6474 45.3697 34.2327 40.947 34.2327H16.6391L9.73866 41.0886C9.37778 41.4472 8.76349 41.1916 8.76349 40.6829V34.2327H8.00808C3.58534 34.2327 -3.8147e-06 30.6474 -3.8147e-06 26.2246V8.00808C-3.8147e-06 3.58534 3.58534 0 8.00808 0H40.947Z" fill="url(#paint0_linear_1_3119)"/>
<path d="M16.6391 34.2327L15.8419 33.4304L16.1727 33.1017H16.6391V34.2327ZM9.73866 41.0886L8.94146 40.2863L8.94147 40.2863L9.73866 41.0886ZM8.76349 34.2327V33.1017H9.89455V34.2327H8.76349ZM47.824 8.00808C47.824 4.21001 44.7451 1.13106 40.947 1.13106V-1.13106C45.9944 -1.13106 50.0861 2.96068 50.0861 8.00808H47.824ZM47.824 26.2246V8.00808H50.0861V26.2246H47.824ZM40.947 33.1017C44.7451 33.1017 47.824 30.0227 47.824 26.2246H50.0861C50.0861 31.2721 45.9944 35.3638 40.947 35.3638V33.1017ZM16.6391 33.1017H40.947V35.3638H16.6391V33.1017ZM17.4363 35.0351L10.5358 41.891L8.94147 40.2863L15.8419 33.4304L17.4363 35.0351ZM10.5358 41.891C9.46139 42.9586 7.63243 42.1975 7.63243 40.6829H9.89455C9.89455 40.1857 9.29417 39.9358 8.94146 40.2863L10.5358 41.891ZM7.63243 40.6829V34.2327H9.89455V40.6829H7.63243ZM8.00808 33.1017H8.76349V35.3638H8.00808V33.1017ZM1.13106 26.2246C1.13106 30.0227 4.21001 33.1017 8.00808 33.1017V35.3638C2.96067 35.3638 -1.13107 31.2721 -1.13107 26.2246H1.13106ZM1.13106 8.00808V26.2246H-1.13107V8.00808H1.13106ZM8.00808 1.13106C4.21001 1.13106 1.13106 4.21001 1.13106 8.00808H-1.13107C-1.13107 2.96067 2.96067 -1.13106 8.00808 -1.13106V1.13106ZM40.947 1.13106H8.00808V-1.13106H40.947V1.13106Z" fill="url(#paint1_linear_1_3119)" mask="url(#path-1-inside-1_1_3119)"/>
<path d="M49.5595 13.8135H37.0833C33.2924 13.8135 30.2192 16.8866 30.2192 20.6775V34.8336" stroke="#152651" stroke-width="7.06912"/>
<mask id="path-4-inside-2_1_3119" fill="white">
<path fill-rule="evenodd" clip-rule="evenodd" d="M38.2273 13.8135C33.8046 13.8135 30.2192 17.3988 30.2192 21.8216V40.0381C30.2192 44.4609 33.8046 48.0462 38.2273 48.0462H71.1662C75.589 48.0462 79.1743 44.4609 79.1743 40.0381V21.8216C79.1743 17.3988 75.589 13.8135 71.1662 13.8135H38.2273ZM70.4109 55.9799C70.4109 56.4886 69.7966 56.7442 69.4358 56.3856L61.043 48.0469H70.4109V55.9799Z"/>
</mask>
<path fill-rule="evenodd" clip-rule="evenodd" d="M38.2273 13.8135C33.8046 13.8135 30.2192 17.3988 30.2192 21.8216V40.0381C30.2192 44.4609 33.8046 48.0462 38.2273 48.0462H71.1662C75.589 48.0462 79.1743 44.4609 79.1743 40.0381V21.8216C79.1743 17.3988 75.589 13.8135 71.1662 13.8135H38.2273ZM70.4109 55.9799C70.4109 56.4886 69.7966 56.7442 69.4358 56.3856L61.043 48.0469H70.4109V55.9799Z" fill="url(#paint2_linear_1_3119)"/>
<path d="M69.4358 56.3856L70.2329 55.5833L70.2329 55.5833L69.4358 56.3856ZM61.043 48.0469V46.9159H58.2998L60.2458 48.8493L61.043 48.0469ZM70.4109 48.0469H71.542V46.9159H70.4109V48.0469ZM31.3503 21.8216C31.3503 18.0235 34.4292 14.9445 38.2273 14.9445V12.6824C33.1799 12.6824 29.0882 16.7742 29.0882 21.8216H31.3503ZM31.3503 40.0381V21.8216H29.0882V40.0381H31.3503ZM38.2273 46.9151C34.4292 46.9151 31.3503 43.8362 31.3503 40.0381H29.0882C29.0882 45.0855 33.1799 49.1773 38.2273 49.1773V46.9151ZM71.1662 46.9151H38.2273V49.1773H71.1662V46.9151ZM78.0433 40.0381C78.0433 43.8362 74.9643 46.9151 71.1662 46.9151V49.1773C76.2136 49.1773 80.3054 45.0855 80.3054 40.0381H78.0433ZM78.0433 21.8216V40.0381H80.3054V21.8216H78.0433ZM71.1662 14.9445C74.9643 14.9445 78.0433 18.0235 78.0433 21.8216H80.3054C80.3054 16.7742 76.2136 12.6824 71.1662 12.6824V14.9445ZM38.2273 14.9445H71.1662V12.6824H38.2273V14.9445ZM68.6386 57.188C69.713 58.2555 71.542 57.4945 71.542 55.9799H69.2799C69.2799 55.4827 69.8802 55.2328 70.2329 55.5833L68.6386 57.188ZM60.2458 48.8493L68.6386 57.188L70.2329 55.5833L61.8402 47.2446L60.2458 48.8493ZM70.4109 46.9159H61.043V49.178H70.4109V46.9159ZM71.542 55.9799V48.0469H69.2799V55.9799H71.542Z" fill="url(#paint3_linear_1_3119)" fill-opacity="0.5" mask="url(#path-4-inside-2_1_3119)"/>
<defs>
<linearGradient id="paint0_linear_1_3119" x1="49.2971" y1="3.95532" x2="-7.77034" y2="29.8084" gradientUnits="userSpaceOnUse">
<stop stop-color="#C2C7FF"/>
<stop offset="1" stop-color="#A3AAFF"/>
</linearGradient>
<linearGradient id="paint1_linear_1_3119" x1="49.2971" y1="3.95532" x2="-7.77034" y2="29.8084" gradientUnits="userSpaceOnUse">
<stop stop-color="#949BF0"/>
<stop offset="1" stop-color="#D1D5FF"/>
</linearGradient>
<linearGradient id="paint2_linear_1_3119" x1="29.8772" y1="17.7686" x2="86.9436" y2="43.6225" gradientUnits="userSpaceOnUse">
<stop stop-color="#C2C7FF"/>
<stop offset="1" stop-color="#A3AAFF"/>
</linearGradient>
<linearGradient id="paint3_linear_1_3119" x1="29.8772" y1="17.7686" x2="86.9436" y2="43.6225" gradientUnits="userSpaceOnUse">
<stop stop-color="#949BF0"/>
<stop offset="1" stop-color="#D1D5FF"/>
</linearGradient>
</defs>
</svg>
